<svg xmlns="http://www.w3.org/2000/svg" viewBox="0 0 760 420">
<title>Precision-recall threshold trade-off</title>
<rect width="100%" height="100%" fill="#ffffff"/>
<text x="78.0" y="30.0" font-family="sans-serif" font-size="19" text-anchor="start" fill="#243447">Precision-recall threshold trade-off</text>
<line x1="78" y1="54" x2="78" y2="348" stroke="#52606d"/>
<line x1="78" y1="348" x2="736" y2="348" stroke="#52606d"/>
<text x="407.0" y="402.0" font-family="sans-serif" font-size="13" text-anchor="middle" fill="#243447">threshold</text>
<text x="18" y="201.0" font-family="sans-serif" font-size="13" text-anchor="middle" transform="rotate(-90 18 201.0)" fill="#243447">PR-AUC contribution</text>
<line x1="78.0" y1="54" x2="78.0" y2="348" stroke="#f0f4f8" stroke-width="1"/>
<line x1="78.0" y1="348" x2="78.0" y2="353" stroke="#52606d"/>
<text x="78.0" y="369.0" font-family="sans-serif" font-size="11" text-anchor="middle" fill="#243447">.1</text>
<line x1="187.7" y1="54" x2="187.7" y2="348" stroke="#f0f4f8" stroke-width="1"/>
<line x1="187.7" y1="348" x2="187.7" y2="353" stroke="#52606d"/>
<text x="187.7" y="369.0" font-family="sans-serif" font-size="11" text-anchor="middle" fill="#243447">.2</text>
<line x1="297.3" y1="54" x2="297.3" y2="348" stroke="#f0f4f8" stroke-width="1"/>
<line x1="297.3" y1="348" x2="297.3" y2="353" stroke="#52606d"/>
<text x="297.3" y="369.0" font-family="sans-serif" font-size="11" text-anchor="middle" fill="#243447">.3</text>
<line x1="407.0" y1="54" x2="407.0" y2="348" stroke="#f0f4f8" stroke-width="1"/>
<line x1="407.0" y1="348" x2="407.0" y2="353" stroke="#52606d"/>
<text x="407.0" y="369.0" font-family="sans-serif" font-size="11" text-anchor="middle" fill="#243447">.4</text>
<line x1="516.7" y1="54" x2="516.7" y2="348" stroke="#f0f4f8" stroke-width="1"/>
<line x1="516.7" y1="348" x2="516.7" y2="353" stroke="#52606d"/>
<text x="516.7" y="369.0" font-family="sans-serif" font-size="11" text-anchor="middle" fill="#243447">.5</text>
<line x1="626.3" y1="54" x2="626.3" y2="348" stroke="#f0f4f8" stroke-width="1"/>
<line x1="626.3" y1="348" x2="626.3" y2="353" stroke="#52606d"/>
<text x="626.3" y="369.0" font-family="sans-serif" font-size="11" text-anchor="middle" fill="#243447">.6</text>
<line x1="736.0" y1="54" x2="736.0" y2="348" stroke="#f0f4f8" stroke-width="1"/>
<line x1="736.0" y1="348" x2="736.0" y2="353" stroke="#52606d"/>
<text x="736.0" y="369.0" font-family="sans-serif" font-size="11" text-anchor="middle" fill="#243447">.7</text>
<line x1="78" y1="348.0" x2="736" y2="348.0" stroke="#e6edf3" stroke-width="1"/>
<line x1="73" y1="348.0" x2="78" y2="348.0" stroke="#52606d"/>
<text x="68.0" y="352.0" font-family="sans-serif" font-size="11" text-anchor="end" fill="#243447">0</text>
<line x1="78" y1="274.5" x2="736" y2="274.5" stroke="#e6edf3" stroke-width="1"/>
<line x1="73" y1="274.5" x2="78" y2="274.5" stroke="#52606d"/>
<text x="68.0" y="278.5" font-family="sans-serif" font-size="11" text-anchor="end" fill="#243447">0</text>
<line x1="78" y1="201.0" x2="736" y2="201.0" stroke="#e6edf3" stroke-width="1"/>
<line x1="73" y1="201.0" x2="78" y2="201.0" stroke="#52606d"/>
<text x="68.0" y="205.0" font-family="sans-serif" font-size="11" text-anchor="end" fill="#243447">0</text>
<line x1="78" y1="127.5" x2="736" y2="127.5" stroke="#e6edf3" stroke-width="1"/>
<line x1="73" y1="127.5" x2="78" y2="127.5" stroke="#52606d"/>
<text x="68.0" y="131.5" font-family="sans-serif" font-size="11" text-anchor="end" fill="#243447">1</text>
<line x1="78" y1="54.0" x2="736" y2="54.0" stroke="#e6edf3" stroke-width="1"/>
<line x1="73" y1="54.0" x2="78" y2="54.0" stroke="#52606d"/>
<text x="68.0" y="58.0" font-family="sans-serif" font-size="11" text-anchor="end" fill="#243447">1</text>
<polygon points="78,348 78.0,281.5 187.7,240.8 297.3,196.4 407.0,144.7 516.7,104.0 626.3,85.5 736.0,96.6 736,348" fill="#b45309" opacity="0.10"/>
<polyline points="78.0,281.5 187.7,240.8 297.3,196.4 407.0,144.7 516.7,104.0 626.3,85.5 736.0,96.6" fill="none" stroke="#b45309" stroke-width="3"/>
<circle cx="78.0" cy="281.5" r="5" fill="#b45309" stroke="white" stroke-width="2"/>
<text x="78.0" y="271.5" font-family="sans-serif" font-size="11" text-anchor="middle" fill="#243447">0.18</text>
<circle cx="626.3" cy="85.5" r="5" fill="#b45309" stroke="white" stroke-width="2"/>
<text x="626.3" y="75.5" font-family="sans-serif" font-size="11" text-anchor="middle" fill="#243447">0.71</text>
<circle cx="736.0" cy="96.6" r="5" fill="#b45309" stroke="white" stroke-width="2"/>
<text x="736.0" y="86.6" font-family="sans-serif" font-size="11" text-anchor="middle" fill="#243447">0.68</text>
</svg>
